<?xml version="1.0" standalone="no"?>
<!DOCTYPE svg PUBLIC "-//W3C//DTD SVG 20010904//EN"
 "http://www.w3.org/TR/2001/REC-SVG-20010904/DTD/svg10.dtd">
<svg version="1.0" xmlns="http://www.w3.org/2000/svg"
 width="198.000000pt" height="200.000000pt" viewBox="0 0 198.000000 200.000000"
 preserveAspectRatio="xMidYMid meet">
<metadata>
Created by potrace 1.10, written by Peter Selinger 2001-2011
</metadata>
<g transform="translate(0.000000,200.000000) scale(0.100000,-0.100000)"
fill="#000000" stroke="none">
<path d="M95 1923 c-32 -8 -74 -54 -85 -92 -6 -22 -10 -289 -10 -686 0 -718
-2 -691 63 -739 27 -20 43 -21 348 -24 l319 -3 0 -140 0 -140 -62 2 -63 3 -3
-47 -3 -47 -297 -3 c-163 -1 144 -2 683 -3 539 0 941 2 894 3 l-86 4 5 49 c5
58 -10 102 -46 130 -20 16 -40 20 -109 20 -83 0 -86 -1 -119 -34 -32 -32 -34
-38 -34 -100 l0 -66 -60 0 -60 0 0 45 0 45 -65 0 -65 0 0 143 0 142 319 0
c307 0 321 1 348 21 15 11 36 36 46 55 16 32 17 81 15 706 -3 661 -3 672 -24
700 -11 15 -36 36 -55 45 -32 17 -94 18 -904 17 -478 -1 -879 -3 -890 -6z
m1816 -61 l29 -32 0 -675 0 -675 -29 -32 -29 -33 -879 -3 c-645 -2 -885 1
-906 9 -15 7 -37 23 -47 37 -19 24 -20 44 -20 699 l0 675 34 34 34 34 892 -2
892 -3 29 -33z m-1063 -1578 l-4 -94 143 0 142 0 -3 95 -3 95 38 0 c22 0 42 0
45 0 3 0 5 -62 5 -137 l0 -138 -226 0 -226 0 0 138 c0 75 1 138 1 140 0 1 21
0 46 -2 l46 -3 -4 -94z m250 15 l-3 -81 -112 -3 -113 -3 0 84 0 84 115 0 116
0 -3 -81z m532 -144 l0 -35 -55 0 c-30 0 -55 4 -55 8 0 11 41 48 60 55 39 14
50 8 50 -28z m116 4 c13 -13 24 -26 24 -31 0 -4 -24 -8 -54 -8 l-54 0 -4 36
-4 36 34 -6 c19 -3 45 -15 58 -27z m22 -106 l-3 -38 -120 0 -120 0 -6 38 -6
37 129 0 129 0 -3 -37z m-428 -8 l0 -35 -355 0 -355 0 0 35 0 35 355 0 355 0
0 -35z"/>
<path d="M110 1230 l0 -580 875 0 875 0 0 580 0 580 -875 0 -875 0 0 -580z
m1729 3 l1 -553 -855 0 -855 0 0 548 c0 302 2 551 4 553 2 2 387 4 855 4 l850
0 0 -552z"/>
<path d="M170 1235 l0 -515 815 0 815 0 0 515 0 515 -815 0 -815 0 0 -515z
m1610 11 c0 -267 -2 -490 -5 -498 -8 -20 -1556 -19 -1563 1 -4 11 -6 11 -13 0
-5 -8 -9 189 -9 459 0 371 3 472 13 472 8 0 7 4 -3 11 -12 9 -13 12 -1 16 11
5 11 7 0 14 -8 5 337 9 784 9 l797 0 0 -484z"/>
<path d="M941 592 c-28 -22 -31 -75 -6 -102 40 -45 119 -11 117 51 -2 60 -65
89 -111 51z m79 -32 c15 -28 -4 -60 -35 -60 -31 0 -50 32 -35 60 6 12 21 20
35 20 14 0 29 -8 35 -20z"/>
<path d="M792 251 c1 -49 6 -87 9 -85 12 7 10 174 -2 174 -7 0 -10 -29 -7 -89z"/>
<path d="M1160 256 c0 -47 5 -88 10 -91 6 -4 10 27 10 84 0 54 -4 91 -10 91
-6 0 -10 -35 -10 -84z"/>
<path d="M1550 63 c0 -22 3 -23 95 -23 88 0 113 8 83 26 -6 4 -14 2 -16 -4 -2
-7 -7 -10 -11 -8 -3 2 -36 6 -71 7 -36 1 -68 7 -72 13 -5 6 -8 1 -8 -11z"/>
<path d="M154 156 c-3 -7 -4 -33 -1 -57 3 -44 4 -44 5 8 l2 52 83 4 82 3 -83
2 c-63 2 -84 -1 -88 -12z"/>
<path d="M367 163 c6 -5 14 -31 16 -58 l4 -50 -1 54 c-1 39 -5 56 -16 58 -10
3 -11 2 -3 -4z"/>
</g>
</svg>
